<svg width="115" height="362" viewBox="0 0 115 362" fill="none" xmlns="http://www.w3.org/2000/svg">
<path d="M99 95C106.5 143.5 108.5 283 109 356.5H6C6.5 283 8.5 143.5 16 95C23.5 46.5 37.5 5 57.5 5C77.5 5 91.5 46.5 99 95Z" stroke="white" stroke-width="10"/>
<path d="M9.5 189.5H105.5M7.5 261H107.5M13 125H102M20.5 72H94.5" stroke="white" stroke-width="10"/>
<path d="M65 128L12 147L13 128.5L65 128Z" fill="white"/>
<path d="M45 214L39.5 193.5H101L45 214Z" fill="white"/>
<path d="M58 282.5L60.5 265.5H11.5L58 282.5Z" fill="white"/>
</svg>
